# AST/ASF file generated using VICON BodyLanguage
# -----------------------------------------------
:version 1.10
:name VICON
:units
  mass 1.0
  length 0.45
  angle deg
:documentation
   .ast/.asf automatically generated from VICON data using
   VICON BodyBuilder and BodyLanguage model FoxedUp or BRILLIANT.MOD
:root
   order TX TY TZ RX RY RZ
   axis XYZ
   position 0 0 0  
   orientation 0 0 0 
:bonedata
  begin
     id 1 
     name lhipjoint
     direction 0.573633 -0.743009 0.344793 
     length 2.46257 
     axis 0 0 0  XYZ
  end
  begin
     id 2 
     name lfemur
     direction 0.34202 -0.939693 0  
     length 7.3842  
     axis 0 0 20  XYZ
    dof rx ry rz
    limits (-160.0 20.0)
           (-70.0 70.0)
           (-60.0 70.0)
  end
  begin
     id 3 
     name ltibia
     direction 0.34202 -0.939693 0   
     length 7.50407   
     axis 0 0 20   XYZ
    dof rx
    limits (-10.0 170.0)
  end
  begin
     id 4 
     name lfoot
     direction 0.110749 -0.304281 0.946123   
     length 1.95925   
     axis -90 7.62852e-016 20   XYZ
    dof rx rz
    limits (-45.0 90.0)
           (-70.0 20.0)
  end
  begin
     id 5 
     name ltoes
     direction 1.53554e-011 -4.21843e-011 1   
     length 0.978318   
     axis -90 7.62852e-016 20   XYZ
    dof rx
    limits (-90.0 20.0)
  end
  begin
     id 6 
     name rhipjoint
     direction -0.488109 -0.791693 0.367385   
     length 2.31113  
     axis 0 0 0  XYZ 
  end
  begin
     id 7 
     name rfemur
     direction -0.34202 -0.939693 0   
     length 7.40965   
     axis 0 0 -20   XYZ
    dof rx ry rz
    limits (-160.0 20.0)
           (-70.0 70.0)
           (-70.0 60.0)
  end
  begin
     id 8 
     name rtibia
     direction -0.34202 -0.939693 0   
     length 7.55548   
     axis 0 0 -20   XYZ
    dof rx
    limits (-10.0 170.0)
 end
 begin
     id 9 
     name rfoot
     direction -0.127594 -0.350561 0.927808   
     length 2.07199  
     axis -90 -7.62852e-016 -20   XYZ
    dof rx rz
    limits (-45.0 90.0)
           (-20.0 70.0)
  end
  begin
     id 10 
     name rtoes
     direction -1.53542e-011 -4.21909e-011 1   
     length 1.02667   
     axis -90 -7.62852e-016 -20   XYZ
    dof rx
    limits (-90.0 20.0)
  end
  begin
     id 11 
     name lowerback
     direction -0.0103342 0.997298 -0.0727278   
     length 2.02836   
     axis 0 0 0   XYZ
    dof rx ry rz
    limits (-20.0 45.0)
           (-30.0 30.0)
           (-30.0 30.0)
  end
  begin
     id 12 
     name upperback
     direction 0.0171146 0.999786 -0.011606   
     length 2.03179   
     axis 0 0 0   XYZ
    dof rx ry rz
    limits (-20.0 45.0)
           (-30.0 30.0)
           (-30.0 30.0)
  end
  begin
     id 13 
     name thorax
     direction 0.0216927 0.999513 0.0224343   
     length 2.03882   
     axis 0 0 0   XYZ
    dof rx ry rz
    limits (-20.0 45.0)
           (-30.0 30.0)
           (-30.0 30.0)
  end
  begin
     id 14 
     name lowerneck
     direction 0.000989287 0.993907 0.110221   
     length 1.75428   
     axis 0 0 0   XYZ
    dof rx ry rz
    limits (-20.0 45.0)
           (-30.0 30.0)
           (-30.0 30.0)
  end
  begin
     id 15 
     name upperneck
     direction -0.0172474 0.994813 -0.100253   
     length 1.77058   
     axis 0 0 0   XYZ
    dof rx ry rz
    limits (-20.0 45.0)
           (-30.0 30.0)
           (-30.0 30.0)
  end
  begin
     id 16
     name head
     direction -0.00486455 0.99894 -0.0457663  
     length 1.77427  
     axis 0 0 0   XYZ
    dof rx ry rz
    limits (-20.0 45.0)
           (-30.0 30.0)
           (-30.0 30.0)
  end
  begin
     id 17 
     name lclavicle
     direction 0.927314 0.333734 -0.169441  
     length 3.97584  
     axis 0 0 0   XYZ
    dof ry rz
    limits (-20.0 10.0)
           (0.0 20.0)
  end
  begin
     id 18 
     name lhumerus
     direction 1 -4.48965e-011 -3.25313e-028   
     length 4.76468   
     axis 180 -30 -90   XYZ
    dof rx ry rz
    limits (-60.0 90.0)
           (-90.0 90.0)
           (-90.0 90.0)
  end
  begin
     id 19
     name lradius
     direction 1 -4.48969e-011 -2.8465e-028   
     length 3.52712   
     axis -180 -30 -90   XYZ
    dof rx
    limits (-10.0 170.0)
  end
  begin
     id 20
     name lwrist
     direction 1 -4.4896e-011 -7.78665e-028   
     length 1.76356   
     axis 1.91374e-015 90 90   XYZ
    dof ry
    limits (-180.0 0.0)
 end
  begin
     id 21 
     name lhand
     direction 1 -4.48959e-011 -1.55733e-027   
     length 0.859564   
     axis 9.9371e-016 90 90   XYZ
    dof rx rz
    limits (-90.0 90.0)
           (-45.0 45.0)
  end
  begin
     id 22 
     name lfingers
     direction 1 -4.48965e-011 -3.11466e-027   
     length 0.693002   
     axis 1.98742e-015 90 90   XYZ
    dof rx
    limits (0.0 90.0)
  end
  begin
     id 23
     name lthumb
     direction 0.707107 -6.34948e-011 0.707107   
     length 0.995017   
     axis -90 45 2.85299e-015   XYZ
    dof rx rz
    limits (-45.0 45.0)
           (-45.0 45.0)
  end
  begin
     id 24 
     name rclavicle
     direction -0.899388 0.348209 -0.264294   
     length 3.68366  
     axis 0 0 0   XYZ 
    dof ry rz
    limits (-10.0 20.0)
           (-20.0 0.0)
  end
  begin
     id 25 
     name rhumerus
     direction -1 -4.48965e-011 -3.01536e-027  
     length 4.90577   
     axis 180 30 90   XYZ
    dof rx ry rz
    limits (-90.0 60.0)
           (-90.0 90.0)
           (-90.0 90.0)
  end
  begin
     id 26 
     name rradius
     direction -1 -4.48966e-011 3.93291e-027   
     length 3.42692   
     axis -180 30 90   XYZ
    dof rx
    limits (-10.0 170.0)
  end
  begin
     id 27 
     name rwrist
     direction -1 -4.48969e-011 -7.78665e-028   
     length 1.71346   
     axis 1.91374e-015 -90 -90   XYZ
    dof ry
    limits (-180.0 0.0)
  end
  begin
     id 28
     name rhand
     direction -1 -4.48967e-011 -1.55733e-027   
     length 0.740957   
     axis 9.9371e-016 -90 -90   XYZ
    dof rx rz
    limits (-90.0 90.0)
           (-45.0 45.0)
  end
  begin
     id 29
     name rfingers
     direction -1 -4.48949e-011 -3.11466e-027   
     length 0.597378   
     axis 1.98742e-015 -90 -90   XYZ
    dof rx
    limits (0.0 90.0)
  end
  begin
     id 30
     name rthumb
     direction -0.707107 -6.34931e-011 0.707107   
     length 0.857719   
     axis -90 -45 -2.85299e-015   XYZ
    dof rx rz
    limits (-45.0 45.0)
           (-45.0 45.0)
  end
:hierarchy
  begin
    root lhipjoint rhipjoint lowerback
    lhipjoint lfemur
    lfemur ltibia
    ltibia lfoot
    lfoot ltoes
    rhipjoint rfemur
    rfemur rtibia
    rtibia rfoot
    rfoot rtoes
    lowerback upperback
    upperback thorax
    thorax lowerneck lclavicle rclavicle
    lowerneck upperneck
    upperneck head
    lclavicle lhumerus
    lhumerus lradius
    lradius lwrist
    lwrist lhand lthumb
    lhand lfingers
    rclavicle rhumerus
    rhumerus rradius
    rradius rwrist
    rwrist rhand rthumb
    rhand rfingers
  end

#!OML:ASF E:\I on waltz\AllaLogoMonkeySwing\Project 1\Capture day 1\Session 1\Subject1.ASF
:FULLY-SPECIFIED
:DEGREES
237
root 14.5566 17.7152 20.5559 0.936765 46.9828 -1.10406
lowerback 7.11868 3.69792 0.658476
upperback -0.520077 5.01607 0.632934
thorax -4.52318 2.47689 -0.259235
lowerneck -3.86638 13.5729 8.83331
upperneck 14.5471 19.6388 -10.5683
head 7.00259 9.4099 -3.05043
rclavicle -7.32273e-014 -2.5842e-015
rhumerus -38.0754 -33.3506 -70.3044
rradius 22.5661
rwrist 7.40622
rhand -7.24016 -36.7513
rfingers 7.12502
rthumb 18.6398 -65.8783
lclavicle -7.32273e-014 -2.5842e-015
lhumerus -41.6152 20.543 81.9935
lradius 38.1201
lwrist -6.44987
lhand -10.2308 -18.3286
lfingers 7.12502
lthumb 15.7614 11.0496
rfemur 0.794658 -4.51853 21.8372
rtibia 14.0766
rfoot -14.0235 -11.734
rtoes 19.2781
lfemur 1.2631 2.75643 -16.8906
ltibia 15.6108
lfoot -20.3592 15.8804
ltoes -43.3239
238
root 14.5463 17.716 20.5572 0.705208 47.0225 -1.23875
lowerback 7.18668 3.71721 0.781464
upperback -0.50797 5.05453 0.663418
thorax -4.54083 2.49315 -0.304285
lowerneck -3.95288 13.5752 8.72592
upperneck 14.6643 19.6396 -10.4445
head 7.0314 9.40684 -2.98944
rclavicle -1.53934e-014 -1.39149e-015
rhumerus -37.5171 -32.4915 -71.0144
rradius 22.9121
rwrist 6.76664
rhand -7.26473 -36.8147
rfingers 7.12502
rthumb 18.6162 -65.9439
lclavicle -1.53934e-014 -1.39149e-015
lhumerus -41.503 20.1836 82.3657
lradius 38.4083
lwrist -4.89523
lhand -10.2365 -17.5479
lfingers 7.12502
lthumb 15.7559 11.8308
rfemur 0.919622 -4.54025 21.9653
rtibia 14.0739
rfoot -13.9589 -11.7536
rtoes 19.1872
lfemur 1.34025 2.73061 -16.7459
ltibia 15.69
lfoot -20.3934 15.8886
ltoes -43.1157
239
root 14.5382 17.7181 20.5586 0.566889 47.0449 -1.32445
lowerback 7.14804 3.75731 0.909662
upperback -0.489513 5.11756 0.649205
thorax -4.48695 2.52178 -0.392763
lowerneck -4.07266 13.5313 8.7269
upperneck 14.7515 19.5743 -10.4015
head 7.06898 9.37116 -2.97366
rclavicle -1.38777e-014 -3.97569e-015
rhumerus -36.829 -31.6243 -71.7786
rradius 23.1531
rwrist 6.06572
rhand -7.19113 -36.8051
rfingers 7.12502
rthumb 18.687 -65.9275
lclavicle -1.38777e-014 -3.97569e-015
lhumerus -41.2601 19.449 82.8108
lradius 38.69
lwrist -3.27198
lhand -10.1051 -16.619
lfingers 7.12502
lthumb 15.8824 12.7496
rfemur 1.01648 -4.53865 22.0605
rtibia 14.0211
rfoot -13.9657 -11.7541
rtoes 19.222
lfemur 1.35207 2.69669 -16.6564
ltibia 15.7846
lfoot -20.3895 15.9161
ltoes -42.9413
240
root 14.5288 17.7193 20.559 0.459793 47.1376 -1.40352
lowerback 7.11296 3.75382 1.04358
upperback -0.488416 5.12272 0.625193
thorax -4.45208 2.5213 -0.489194
lowerneck -4.17631 13.4831 8.80456
upperneck 14.8123 19.5124 -10.4556
head 7.11361 9.33587 -2.99883
rclavicle 3.92351e-014 6.75868e-015
rhumerus -36.0574 -30.7537 -72.5345
rradius 23.2922
rwrist 5.56465
rhand -6.97701 -36.779
rfingers 7.12502
rthumb 18.8929 -65.8814
lclavicle 3.92351e-014 6.75868e-015
lhumerus -40.981 18.647 83.1845
lradius 38.8723
lwrist -1.96598
lhand -9.97032 -16.2279
lfingers 7.12502
lthumb 16.0122 13.1304
rfemur 1.09604 -4.58525 22.1468
rtibia 13.94
rfoot -13.9837 -11.7534
rtoes 19.5763
lfemur 1.30577 2.50283 -16.6001
ltibia 15.8943
lfoot -20.3161 15.9675
ltoes -42.7357
241
root 14.5168 17.7182 20.5599 0.219019 47.2761 -1.63815
lowerback 7.16162 3.70131 1.2339
upperback -0.508963 5.07223 0.66537
thorax -4.48865 2.49175 -0.551961
lowerneck -4.17928 13.4702 8.81879
upperneck 14.731 19.4988 -10.5402
head 7.09675 9.32663 -3.02975
rclavicle -5.47403e-014 -9.93923e-015
rhumerus -35.2973 -30.002 -73.1457
rradius 23.3636
rwrist 5.57672
rhand -6.67879 -36.7118
rfingers 7.12502
rthumb 19.1797 -65.786
lclavicle -5.47403e-014 -9.93923e-015
lhumerus -40.7981 18.0505 83.4325
lradius 39.0246
lwrist -1.40329
lhand -9.80086 -16.3282
lfingers 7.12502
lthumb 16.1754 13.0169
rfemur 1.19254 -4.64017 22.3694
rtibia 13.8622
rfoot -13.9945 -11.7747
rtoes 19.5236
lfemur 1.24273 2.30073 -16.3991
ltibia 16.0595
lfoot -20.2919 16.0803
ltoes -42.6085
242
root 14.5063 17.7153 20.5619 -0.0350894 47.3337 -1.91051
lowerback 7.19979 3.68293 1.45097
upperback -0.536493 5.0701 0.712252
thorax -4.52441 2.48552 -0.627236
lowerneck -4.10676 13.4312 8.82115
upperneck 14.5063 19.4441 -10.6726
head 7.02028 9.30097 -3.0879
rclavicle -5.97224e-014 5.76476e-015
rhumerus -34.513 -29.2759 -73.705
rradius 23.4116
rwrist 5.75108
rhand -6.60966 -36.6726
rfingers 7.12502
rthumb 19.2462 -65.7403
lclavicle -5.97224e-014 5.76476e-015
lhumerus -40.679 17.498 83.6154
lradius 39.184
lwrist -1.60147
lhand -9.60067 -16.4787
lfingers 7.12502
lthumb 16.3682 12.8507
rfemur 1.23688 -4.6506 22.6282
rtibia 13.8681
rfoot -14.0378 -11.7931
rtoes 18.8069
lfemur 1.15031 2.21611 -16.1518
ltibia 16.3007
lfoot -20.2656 16.1785
ltoes -42.6172
243
root 14.4965 17.7113 20.5621 -0.11452 47.3366 -1.99602
lowerback 7.2029 3.69393 1.53244
upperback -0.564428 5.09345 0.732702
thorax -4.54974 2.49492 -0.655058
lowerneck -4.02914 13.3977 8.86587
upperneck 14.2664 19.3988 -10.8453
head 6.9475 9.27994 -3.16326
rclavicle 6.25675e-014 2.46493e-014
rhumerus -33.7142 -28.3531 -74.2967
rradius 23.5164
rwrist 5.63537
rhand -6.88115 -36.6091
rfingers 7.12502
rthumb 18.9851 -65.7026
lclavicle 6.25675e-014 2.46493e-014
lhumerus -40.5873 17.0031 83.732
lradius 39.3255
lwrist -2.07087
lhand -9.33324 -16.7325
lfingers 7.12502
lthumb 16.6256 12.5754
rfemur 1.19083 -4.63024 22.7358
rtibia 13.9522
rfoot -14.0535 -11.8331
rtoes 18.2296
lfemur 1.0127 2.07268 -16.0903
ltibia 16.5619
lfoot -20.1056 16.1948
ltoes -42.5759
244
root 14.4852 17.7084 20.5565 -0.0202258 47.3398 -1.90664
lowerback 7.23056 3.70553 1.47677
upperback -0.605235 5.10626 0.749348
thorax -4.61402 2.50176 -0.612413
lowerneck -4.0587 13.3854 8.88958
upperneck 14.1458 19.3904 -10.9982
head 6.93135 9.26959 -3.21426
rclavicle -1.20886e-014 6.16232e-015
rhumerus -33.0174 -27.4983 -74.7625
rradius 23.7212
rwrist 5.5772
rhand -7.24474 -36.6211
rfingers 7.12502
rthumb 18.6354 -65.7485
lclavicle -1.20886e-014 6.16232e-015
lhumerus -40.5085 16.7944 83.7313
lradius 39.4223
lwrist -2.67705
lhand -8.98849 -17.1022
lfingers 7.12502
lthumb 16.9575 12.1775
rfemur 1.03676 -4.64374 22.6867
rtibia 14.0977
rfoot -14.0377 -11.8597
rtoes 17.9582
lfemur 0.786527 1.77563 -16.2462
ltibia 16.8438
lfoot -19.8459 16.1301
ltoes -42.4403
245
root 14.4739 17.7063 20.5484 0.148976 47.3346 -1.73281
lowerback 7.29203 3.74566 1.42028
upperback -0.648165 5.15633 0.739765
thorax -4.69666 2.52642 -0.602919
lowerneck -4.21827 13.3561 8.80661
upperneck 14.1456 19.3507 -11.019
head 6.94849 9.23873 -3.20269
rclavicle 2.22763e-014 -1.0138e-014
rhumerus -32.4798 -26.9963 -75.0249
rradius 24.038
rwrist 5.74447
rhand -7.37725 -36.6908
rfingers 7.12502
rthumb 18.508 -65.8303
lclavicle 2.22763e-014 -1.0138e-014
lhumerus -40.4284 16.7549 83.6285
lradius 39.4897
lwrist -3.48797
lhand -8.7363 -17.2529
lfingers 7.12502
lthumb 17.2003 12.0059
rfemur 0.853411 -4.6834 22.5556
rtibia 14.2566
rfoot -14.0349 -11.8572
rtoes 18.0283
lfemur 0.532812 1.49228 -16.4944
ltibia 17.1196
lfoot -19.6167 16.0665
ltoes -42.4402
246
root 14.4641 17.7054 20.5458 0.28218 47.3828 -1.53478
lowerback 7.33705 3.77366 1.34195
upperback -0.640972 5.18628 0.717698
thorax -4.71888 2.54256 -0.588719
lowerneck -4.4186 13.3479 8.7016
upperneck 14.1378 19.3317 -11.0069
head 6.96685 9.2169 -3.17279
rclavicle -6.3549e-014 -1.19271e-015
rhumerus -31.9338 -26.541 -75.3018
rradius 24.3545
rwrist 5.61474
rhand -7.41712 -36.6189
rfingers 7.12502
rthumb 18.4696 -65.7621
lclavicle -6.3549e-014 -1.19271e-015
lhumerus -40.3184 16.6937 83.5003
lradius 39.5222
lwrist -3.95978
lhand -8.74619 -17.164
lfingers 7.12502
lthumb 17.1907 12.0956
rfemur 0.804249 -4.72283 22.4133
rtibia 14.3247
rfoot -14.0386 -11.8957
rtoes 18.3618
lfemur 0.383523 1.38205 -16.7065
ltibia 17.3243
lfoot -19.5703 16.1279
ltoes -42.6373
247
root 14.4558 17.705 20.5478 0.292047 47.4623 -1.3991
lowerback 7.35922 3.76214 1.21926
upperback -0.558394 5.16064 0.750545
thorax -4.65946 2.53446 -0.482497
lowerneck -4.59892 13.3234 8.56403
upperneck 14.0053 19.2879 -11.0568
head 6.94248 9.18177 -3.16489
rclavicle 8.26199e-015 1.49089e-014
rhumerus -31.2471 -25.8374 -75.7059
rradius 24.6082
rwrist 4.91931
rhand -7.72726 -36.5842
rfingers 7.12502
rthumb 18.1713 -65.7554
lclavicle 8.26199e-015 1.49089e-014
lhumerus -40.1624 16.7491 83.3572
lradius 39.4812
lwrist -3.78216
lhand -8.83171 -17.0487
lfingers 7.12502
lthumb 17.1084 12.218
rfemur 0.904226 -4.7511 22.3232
rtibia 14.3148
rfoot -14.0821 -11.9478
rtoes 18.5335
lfemur 0.372879 1.32886 -16.825
ltibia 17.481
lfoot -19.5805 16.2315
ltoes -42.8806
248
root 14.4475 17.7037 20.5523 0.129478 47.5139 -1.43595
lowerback 7.39522 3.74589 1.14175
upperback -0.454676 5.13583 0.845776
thorax -4.58756 2.52659 -0.337223
lowerneck -4.69589 13.3459 8.70223
upperneck 13.8325 19.3384 -11.3908
head 6.95778 9.19165 -3.27463
rclavicle -2.9855e-014 1.47101e-014
rhumerus -30.6377 -25.1974 -76.0468
rradius 24.9298
rwrist 4.22841
rhand -8.01811 -36.5598
rfingers 7.12502
rthumb 17.8914 -65.7568
lclavicle -2.9855e-014 1.47101e-014
lhumerus -40.0075 16.961 83.1353
lradius 39.4051
lwrist -3.32567
lhand -8.82359 -16.911
lfingers 7.12502
lthumb 17.1162 12.355
rfemur 1.07211 -4.6952 22.3887
rtibia 14.2618
rfoot -14.1241 -12.0325
rtoes 18.5515
lfemur 0.458465 1.20841 -16.7722
ltibia 17.6061
lfoot -19.4828 16.2917
ltoes -42.9521
249
root 14.4383 17.7031 20.5579 -0.111719 47.5781 -1.63418
lowerback 7.42923 3.72714 1.16279
upperback -0.401745 5.11797 0.954156
thorax -4.55995 2.51922 -0.235608
lowerneck -4.63399 13.3557 8.79595
upperneck 13.5677 19.3604 -11.661
head 6.90231 9.19988 -3.3765
rclavicle 5.59579e-014 1.35174e-014
rhumerus -30.2081 -24.8512 -76.2372
rradius 25.2647
rwrist 3.85135
rhand -7.98567 -36.5231
rfingers 7.12502
rthumb 17.9226 -65.7173
lclavicle 5.59579e-014 1.35174e-014
lhumerus -39.9138 17.1589 82.8535
lradius 39.314
lwrist -2.80248
lhand -8.89428 -16.5979
lfingers 7.12502
lthumb 17.0482 12.674
rfemur 1.19834 -4.5908 22.6123
rtibia 14.1911
rfoot -14.0847 -12.1852
rtoes 18.462
lfemur 0.511082 1.1507 -16.5479
ltibia 17.6931
lfoot -19.4625 16.361
ltoes -42.6974
250
root 14.4309 17.7039 20.5613 -0.190376 47.6684 -1.73367
lowerback 7.39936 3.69062 1.16422
upperback -0.394722 5.07238 1.02437
thorax -4.54254 2.49787 -0.156732
lowerneck -4.59054 13.382 8.96313
upperneck 13.3648 19.4018 -11.9125
head 6.87755 9.21935 -3.47724
rclavicle 6.95746e-016 1.74931e-014
rhumerus -29.8298 -24.5466 -76.4158
rradius 25.5692
rwrist 3.37714
rhand -7.99967 -36.6309
rfingers 7.12502
rthumb 17.9092 -65.8263
lclavicle 6.95746e-016 1.74931e-014
lhumerus -39.9194 17.4678 82.4792
lradius 39.2492
lwrist -2.39747
lhand -8.89373 -16.1539
lfingers 7.12502
lthumb 17.0487 13.118
rfemur 1.21323 -4.55983 22.7404
rtibia 14.1569
rfoot -14.0296 -12.3002
rtoes 18.488
lfemur 0.46251 1.19285 -16.4144
ltibia 17.7525
lfoot -19.5924 16.4132
ltoes -42.4504
